<?xml version="1.0" encoding="utf-8"?>
<!-- Generator: Adobe Illustrator 21.1.0, SVG Export Plug-In . SVG Version: 6.00 Build 0)  -->
<svg version="1.1" xmlns="http://www.w3.org/2000/svg" xmlns:xlink="http://www.w3.org/1999/xlink" x="0px" y="0px"
	 viewBox="0 0 185.2 146.7" style="enable-background:new 0 0 185.2 146.7;" xml:space="preserve">
<style type="text/css">
	.st0{display:none;}
	.st1{display:inline;}
	.st2{fill:#FBF06C;}
	.st3{fill-rule:evenodd;clip-rule:evenodd;fill:#231F20;}
	.st4{opacity:5.000000e-02;fill:#767576;}
	.st5{fill:#231F20;}
	.st6{opacity:5.000000e-02;}
	.st7{fill:#767576;}
	.st8{fill:#FFFFFF;}
</style>
<g id="Layer_1" class="st0">
	<g class="st1">
		<g>
			<path class="st2" d="M138.5,110.8H46.7c-17.8,0-32.2-14.5-32.2-32.2c0-13.9,8.8-26,21.5-30.4c0.9-13.3,12-23.9,25.6-23.9
				c1.4,0,2.9,0.1,4.3,0.4c7.4-11.8,20.5-19.2,34.7-19.2c22.6,0,40.9,18.4,40.9,40.9c0,0.1,0,0.1,0,0.2
				c16.4,1.5,29.3,15.3,29.3,32.1C170.7,96.4,156.3,110.8,138.5,110.8z M61.5,36.8c-7.3,0-13.2,5.9-13.2,13.2c0,0.6,0.1,1.3,0.2,2.1
				c0.5,3.4-1.8,6.6-5.1,7.1c-9.5,1.6-16.5,9.8-16.5,19.5c0,10.9,8.9,19.7,19.7,19.7h91.9c10.9,0,19.7-8.9,19.7-19.7
				c0-10.9-8.9-19.7-19.7-19.7h-3.9c-1.9,0-3.6-0.8-4.8-2.2c-1.2-1.4-1.7-3.3-1.3-5.1c0.3-1.7,0.5-3.5,0.5-5.2
				c0-15.7-12.8-28.4-28.4-28.4c-11.1,0-21.3,6.5-25.9,16.7c-1.4,3.1-5,4.5-8.1,3.2C65,37.1,63.3,36.8,61.5,36.8z"/>
		</g>
		<g>
			<path class="st3" d="M103,49.2H82.1c-2,0-3.3,2.2-2.3,3.9l10.4,18.8c1,1.8,3.6,1.8,4.6,0l10.6-18.8C106.3,51.4,105,49.2,103,49.2
				z"/>
		</g>
		<path class="st3" d="M110.3,85.9H74.8c-1.6,0-2.9-1.3-2.9-2.9v-1.1c0-1.6,1.3-2.9,2.9-2.9h35.6c1.6,0,2.9,1.3,2.9,2.9V83
			C113.2,84.6,111.9,85.9,110.3,85.9z"/>
		<ellipse class="st4" cx="92.6" cy="135.2" rx="53.2" ry="6"/>
	</g>
</g>
<g id="Layer_5" class="st0">
	<g class="st1">
		<g>
			<path class="st5" d="M87.5,101.5c-4.2-0.3-7.7-1-10.3-2c-2.6-1-4.6-1.8-5.9-2.4l3.7-10c2,1,4.4,1.9,7.3,2.7
				c2.8,0.8,5.8,1.2,8.9,1.2c3.5,0,6-0.5,7.3-1.4c1.3-1,2-2.3,2-4c0-1.1-0.3-2-0.8-2.8c-0.5-0.8-1.3-1.5-2.3-2.1
				c-1-0.6-2.2-1.3-3.7-1.9c-1.5-0.6-3.2-1.3-5.2-2c-1.9-0.7-3.8-1.5-5.6-2.3c-1.8-0.8-3.5-1.9-5-3.1c-1.5-1.2-2.7-2.7-3.6-4.5
				C73.5,65.1,73,63,73,60.5c0-1.9,0.3-3.8,0.8-5.5c0.6-1.8,1.4-3.4,2.6-4.8c1.2-1.4,2.7-2.7,4.5-3.7c1.9-1,4.1-1.8,6.6-2.2v-9.4h11
				v9c3,0.3,5.6,0.7,7.8,1.3c2.2,0.6,3.9,1.2,5.2,1.7l-2.7,10.4c-1.9-0.8-4.1-1.5-6.7-2.1c-2.5-0.6-5.2-0.9-8-0.9
				c-2.8,0-4.8,0.5-6,1.4c-1.2,0.9-1.8,2.1-1.8,3.7c0,0.9,0.2,1.7,0.6,2.4c0.4,0.7,1,1.3,1.8,1.8c0.8,0.5,1.8,1,3,1.5
				c1.2,0.5,2.6,1,4.3,1.6c2.6,0.9,4.9,1.9,7.1,3c2.2,1.1,4.1,2.4,5.7,3.8c1.6,1.4,2.8,3.1,3.7,5c0.9,1.9,1.3,4.1,1.3,6.7
				c0,1.7-0.3,3.5-0.8,5.2c-0.5,1.7-1.4,3.3-2.6,4.7c-1.2,1.4-2.8,2.7-4.7,3.7c-1.9,1-4.3,1.8-7.2,2.3v10.6h-11V101.5z"/>
		</g>
		<g>
			<g class="st6">
				<path class="st7" d="M99.1,125.3c25.8-3.2,45.8-25.3,45.8-51.9c0-2-0.1-4-0.3-6c-3,26.1-25.2,46.4-52,46.4
					c-26.9,0-49.1-20.3-52-46.4c-0.2,2-0.3,3.9-0.3,6c0,26.7,20,48.7,45.8,51.9c2.2,0.2,4.3,0.3,6.6,0.3
					C94.8,125.7,97,125.5,99.1,125.3z"/>
			</g>
			<path class="st2" d="M92.6,9.1c-35.4,0-64.2,28.8-64.2,64.2c0,35.4,28.8,64.2,64.2,64.2c35.4,0,64.2-28.8,64.2-64.2
				C156.8,37.9,128,9.1,92.6,9.1z M40.2,73.3C40.2,44.5,63.7,21,92.6,21c12.2,0,23.4,4.2,32.3,11.2l-73.5,73.5
				C44.4,96.8,40.2,85.5,40.2,73.3z M92.6,125.7c-12.2,0-23.4-4.2-32.3-11.2L133.7,41c7,8.9,11.2,20.1,11.2,32.3
				C145,102.2,121.5,125.7,92.6,125.7z"/>
		</g>
	</g>
</g>
<g id="Layer_2" class="st0">
	<g class="st1">
		<g>
			<g>
				<circle class="st8" cx="92.6" cy="73.3" r="52.9"/>
				<g>
					<path class="st5" d="M105.7,19l-1.3-13.6h0C104,2.4,98.9,0,92.6,0S81.2,2.4,80.8,5.5h0L79.5,19c4.2-1,8.6-1.6,13.1-1.6
						S101.5,18,105.7,19z"/>
					<path class="st5" d="M79.5,127.6l1.3,13.6h0c0.4,3,5.5,5.5,11.8,5.5s11.4-2.4,11.8-5.5h0l1.3-13.6c-4.2,1-8.6,1.6-13.1,1.6
						S83.7,128.6,79.5,127.6z"/>
					<path class="st5" d="M38.3,60.2l-13.6,1.3v0c-3,0.4-5.5,5.5-5.5,11.8c0,6.3,2.4,11.4,5.5,11.8v0l13.6,1.3
						c-1-4.2-1.6-8.6-1.6-13.1C36.7,68.8,37.3,64.4,38.3,60.2z"/>
					<path class="st5" d="M160.5,61.6L160.5,61.6l-13.6-1.3c1,4.2,1.6,8.6,1.6,13.1c0,4.5-0.5,8.9-1.6,13.1l13.6-1.3v0
						c3-0.4,5.5-5.5,5.5-11.8C165.9,67.1,163.5,61.9,160.5,61.6z"/>
					<path class="st5" d="M121.7,121l10.5,8.7l0,0c2.4,1.9,7.8,0,12.2-4.5c4.4-4.4,6.3-9.8,4.5-12.2l0,0l-8.7-10.5
						C135.6,110,129.3,116.4,121.7,121z"/>
					<path class="st5" d="M63.4,25.7L52.9,17l0,0c-2.4-1.9-7.8,0-12.2,4.5c-4.4,4.4-6.3,9.8-4.5,12.2l0,0l8.7,10.5
						C49.5,36.7,55.9,30.3,63.4,25.7z"/>
					<path class="st5" d="M44.9,102.5L36.3,113l0,0c-1.9,2.4,0,7.8,4.5,12.2c4.4,4.4,9.8,6.3,12.2,4.5l0,0l10.5-8.7
						C55.9,116.4,49.5,110,44.9,102.5z"/>
					<path class="st5" d="M140.2,44.2l8.7-10.5l0,0c1.9-2.4,0-7.8-4.5-12.2c-4.4-4.4-9.8-6.3-12.2-4.5l0,0l-10.5,8.7
						C129.3,30.3,135.6,36.7,140.2,44.2z"/>
				</g>
				<g>
					<g>
						<path class="st2" d="M92.6,137.5c-35.4,0-64.2-28.8-64.2-64.2S57.2,9.1,92.6,9.1s64.2,28.8,64.2,64.2S128,137.5,92.6,137.5z
							 M92.6,21c-28.9,0-52.4,23.5-52.4,52.4s23.5,52.4,52.4,52.4S145,102.2,145,73.3S121.5,21,92.6,21z"/>
					</g>
				</g>
				<g>
					<path class="st5" d="M67.2,53.1c-0.2,0,1.3-2.3,1.1-2.3c-10.9,10.5-9.9,24.6-4.7,34.7c3.6,7.1,10.3,13.7,18.2,17.2
						c3.7,1.6,9.3,3.2,15.2,3c12.6-0.3,21.5-6.2,26.5-16l0.3-0.8c-4.4,4.4-11.6,7.5-17.2,8.1C83.1,99.6,59,78.6,66.9,54.1L67.2,53.1
						z"/>
					<path class="st5" d="M125.3,72.3c-3.6,3.9-9.8,6.6-15.7,6.6c-13.2-0.1-28-11.9-26.3-28.4c0.1-1.4,0.7-3.6,2.2-6.5
						c-4.4,5.5-7,10.1-6.3,17.7c1,10.5,10.9,20.9,21.3,22.3C112.9,85.6,122.1,80.4,125.3,72.3"/>
					<path class="st5" d="M124.7,58.5c-7.9,5.4-12.8,3.6-15.1,2.9c-0.5-0.1-1.7-0.7-2.8-1.3c-2.5-1.5-3.7-2.1-5.6-4.9
						c-1-1.5-2.1-3.9-2.4-5.3c-0.6-2.3-0.4-5.8,0.7-8.9c-3.6,3.2-4.1,9.4-2.9,13.5c0.2,0.5,1,2.5,1.5,3.3c3.1,5,9,9.4,18.2,7.4
						C118.5,64.5,123.8,60.6,124.7,58.5"/>
				</g>
			</g>
		</g>
		<g class="st6">
			<path class="st7" d="M99.1,125.4c25.8-3.2,45.8-25.3,45.8-51.9c0-2-0.1-4-0.3-6c-3,26.1-25.2,46.4-52,46.4
				c-26.9,0-49.1-20.3-52-46.4c-0.2,2-0.3,3.9-0.3,6c0,26.7,20,48.7,45.8,51.9c2.2,0.2,4.3,0.3,6.6,0.3
				C94.8,125.7,97,125.6,99.1,125.4z"/>
		</g>
	</g>
</g>
<g id="Layer_3" class="st0">
	<g class="st1">
		<g>
			<g>
				<path class="st5" d="M1.4,76c-1.9-1.2-1.9-4,0-5.3l6.1-3.9l5.4-3.4c2.1-1.3,4.8,0.2,4.8,2.6v7.3v7.3c0,2.5-2.7,4-4.8,2.6
					l-5.4-3.4L1.4,76z"/>
				<path class="st5" d="M183.7,70.7c1.9,1.2,1.9,4,0,5.3l-6.1,3.9l-5.4,3.4c-2.1,1.3-4.8-0.2-4.8-2.6v-7.3V66c0-2.5,2.7-4,4.8-2.6
					l5.4,3.4L183.7,70.7z"/>
				<path class="st5" d="M53.7,89.1L73.5,68l11.7,13.4l28.6-26.6l16.4,18.6v24c0,5.5-4.5,10-10,10H63.7c-5.5,0-10-4.5-10-10V89.1z"
					/>
				<circle class="st5" cx="79.3" cy="53.2" r="10.7"/>
			</g>
		</g>
		<path class="st2" d="M136.5,24c4.4,0,8.1,3.7,8.1,8.1v82.5c0,4.4-3.7,8.1-8.1,8.1H48.6c-4.4,0-8.1-3.7-8.1-8.1V32.1
			c0-4.4,3.7-8.1,8.1-8.1H136.5 M136.5,11.5H48.6C37.3,11.5,28,20.8,28,32.1v82.5c0,11.3,9.3,20.6,20.6,20.6h87.9
			c11.3,0,20.6-9.3,20.6-20.6V32.1C157.1,20.8,147.8,11.5,136.5,11.5L136.5,11.5z"/>
		<path class="st4" d="M144.6,114.6v-12.5c0,4.4-3.7,8.1-8.1,8.1H48.8c-4.4,0-8.1-3.7-8.1-8.1v12.5c0,4.4,3.7,8.1,8.1,8.1h87.7
			C140.9,122.7,144.6,119,144.6,114.6z"/>
	</g>
</g>
<g id="Layer_4">
	<g>
		<g>
			<g>
				<path class="st3" d="M82.1,71.9h20.9c2,0,3.3-2.2,2.3-3.9L95,49.2c-1-1.8-3.6-1.8-4.6,0L79.8,68C78.8,69.7,80.1,71.9,82.1,71.9z
					"/>
			</g>
			<path class="st2" d="M133.5,0.8H51.7c-10.7,0-19.5,8.8-19.5,19.5v80.3v1.6v24.2c0,10.7,8.8,19.5,19.5,19.5h81.8
				c10.7,0,19.5-8.8,19.5-19.5v-24.2v-1.6V20.3C153,9.6,144.2,0.8,133.5,0.8z M44.6,20.3c0-3.8,3.2-7,7-7h81.8c3.8,0,7,3.2,7,7v81.8
				c0,3.8-3.2,7-7,7H51.7c-3.8,0-7-3.2-7-7V20.3z M133.5,133.4H51.7c-3.8,0-7-3.2-7-7v-6c2.2,0.9,4.6,1.3,7,1.3h81.8
				c2.5,0,4.9-0.5,7-1.3v6C140.5,130.2,137.3,133.4,133.5,133.4z"/>
		</g>
		<path class="st4" d="M133.5,96.7H51.7c-3.8,0-7-3.2-7-7v12.5c0,3.8,3.2,7,7,7h81.8c3.8,0,7-3.2,7-7V89.6
			C140.5,93.5,137.3,96.7,133.5,96.7z"/>
	</g>
</g>
</svg>
