<?xml version="1.0" encoding="utf-8"?>
<!-- Generator: Adobe Illustrator 21.1.0, SVG Export Plug-In . SVG Version: 6.00 Build 0)  -->
<svg version="1.1" id="Layer_1" xmlns="http://www.w3.org/2000/svg" xmlns:xlink="http://www.w3.org/1999/xlink" x="0px" y="0px"
	 viewBox="0 0 100 65.6" style="enable-background:new 0 0 100 65.6;" xml:space="preserve">
<style type="text/css">
	.st0{fill:#E1E2E1;}
</style>
<g>
	<path class="st0" d="M63.3,2c0.1,0,0.3,0.1,0.3,0.3v26.6c0,0.1-0.1,0.3-0.3,0.3H36.7c-0.1,0-0.3-0.1-0.3-0.3V2.3
		c0-0.1,0.1-0.3,0.3-0.3H63.3 M63.3,0H36.7c-1.3,0-2.3,1-2.3,2.3v26.6c0,1.3,1,2.3,2.3,2.3h26.6c1.3,0,2.3-1,2.3-2.3V2.3
		C65.6,1,64.5,0,63.3,0L63.3,0z"/>
	<path class="st0" d="M63.3,36.5c0.1,0,0.3,0.1,0.3,0.3v26.6c0,0.1-0.1,0.3-0.3,0.3H36.7c-0.1,0-0.3-0.1-0.3-0.3V36.7
		c0-0.1,0.1-0.3,0.3-0.3H63.3 M63.3,34.4H36.7c-1.3,0-2.3,1-2.3,2.3v26.6c0,1.3,1,2.3,2.3,2.3h26.6c1.3,0,2.3-1,2.3-2.3V36.7
		C65.6,35.5,64.5,34.4,63.3,34.4L63.3,34.4z"/>
	<path class="st0" d="M97.7,36.5c0.1,0,0.3,0.1,0.3,0.3v26.6c0,0.1-0.1,0.3-0.3,0.3H71.2c-0.1,0-0.3-0.1-0.3-0.3V36.7
		c0-0.1,0.1-0.3,0.3-0.3H97.7 M97.7,34.4H71.2c-1.3,0-2.3,1-2.3,2.3v26.6c0,1.3,1,2.3,2.3,2.3h26.6c1.3,0,2.3-1,2.3-2.3V36.7
		C100,35.5,99,34.4,97.7,34.4L97.7,34.4z"/>
	<path class="st0" d="M28.8,36.5c0.1,0,0.3,0.1,0.3,0.3v26.6c0,0.1-0.1,0.3-0.3,0.3H2.3c-0.1,0-0.3-0.1-0.3-0.3V36.7
		c0-0.1,0.1-0.3,0.3-0.3H28.8 M28.8,34.4H2.3c-1.3,0-2.3,1-2.3,2.3v26.6c0,1.3,1,2.3,2.3,2.3h26.6c1.3,0,2.3-1,2.3-2.3V36.7
		C31.1,35.5,30.1,34.4,28.8,34.4L28.8,34.4z"/>
	<path class="st0" d="M49.5,13.1l-3,4.2c-0.3,0.4,0,0.9,0.5,0.9H53c0.5,0,0.7-0.5,0.5-0.9l-3-4.2C50.2,12.8,49.8,12.8,49.5,13.1
		l-3,4.2c-0.3,0.4,0,0.9,0.5,0.9H53c0.5,0,0.7-0.5,0.5-0.9l-3-4.2C50.2,12.8,49.8,12.8,49.5,13.1z"/>
	<path class="st0" d="M50.5,52.4l3-4.2c0.3-0.4,0-0.9-0.5-0.9H47c-0.5,0-0.7,0.5-0.5,0.9l3,4.2C49.8,52.7,50.2,52.7,50.5,52.4l3-4.2
		c0.3-0.4,0-0.9-0.5-0.9H47c-0.5,0-0.7,0.5-0.5,0.9l3,4.2C49.8,52.7,50.2,52.7,50.5,52.4z"/>
	<path class="st0" d="M86.9,49.5l-4.2-3c-0.4-0.3-0.9,0-0.9,0.5V53c0,0.5,0.5,0.7,0.9,0.5l4.2-3C87.2,50.2,87.2,49.8,86.9,49.5
		l-4.2-3c-0.4-0.3-0.9,0-0.9,0.5V53c0,0.5,0.5,0.7,0.9,0.5l4.2-3C87.2,50.2,87.2,49.8,86.9,49.5z"/>
	<path class="st0" d="M13.1,50.5l4.2,3c0.4,0.3,0.9,0,0.9-0.5V47c0-0.5-0.5-0.7-0.9-0.5l-4.2,3C12.8,49.8,12.8,50.2,13.1,50.5l4.2,3
		c0.4,0.3,0.9,0,0.9-0.5V47c0-0.5-0.5-0.7-0.9-0.5l-4.2,3C12.8,49.8,12.8,50.2,13.1,50.5z"/>
</g>
</svg>
